<svg xmlns="http://www.w3.org/2000/svg" xmlns:xlink="http://www.w3.org/1999/xlink" width="266.443" height="305.883" version="1.1" viewBox="0 0 199.832 229.412"><g><g id="Layer-1" data-name="Layer"><clipPath id="cp0"><path d="M 0 229.412 L 199.832 229.412 L 199.832 0 L 0 0 Z" transform="matrix(1,0,0,-1,0,229.412)"/></clipPath><g clip-path="url(#cp0)"><path fill="#fff" d="M 0 0 L -149.179 0 C -163.087 0 -174.361 11.274 -174.361 25.183 L -174.361 174.52 C -174.361 188.428 -163.087 199.703 -149.179 199.703 L 0 199.703 C 13.908 199.703 25.183 188.428 25.183 174.52 L 25.183 25.183 C 25.183 11.274 13.908 0 0 0" transform="matrix(1,0,0,-1,174.5052,199.7028)"/><path fill="#3d8bc9" d="M 0 0 C 1.563 .666 3.13 1.326 4.705 1.966 C 5.146 2.145 5.599 2.291 6.054 2.433" transform="matrix(1,0,0,-1,92.7533,160.1872)"/><path fill="#3d8bc9" d="M 0 0 C 4.786 1.279 9.893 1.653 13.928 -2.156 C 18.185 -6.174 16.596 -9.223 16.482 -10.109 C 16.004 -11.11 14.882 -11.638 13.464 -11.936 C 10.363 -12.588 7.565 -14.504 4.771 -15.946 C 1.64 -17.562 -1.519 -19.113 -4.528 -20.951 C -10.032 -24.312 -15.101 -28.321 -20.233 -32.209 C -25.343 -36.079 -30.721 -39.546 -35.852 -43.378 L 80.626 -43.378 C 83.961 -43.378 87.159 -42.047 89.509 -39.68 L 91.89 -37.281 C 95.135 -34.013 96.955 -29.594 96.955 -24.987 L 96.955 105.188 L 96.955 106.496 C 96.682 107.345 95.975 107.203 95.64 105.896 C 95.387 105.083 95.247 103.182 95.162 101.976 C 95.105 100.268 94.346 91.281 94.191 89.118 C 94.12 87.546 93.791 84.473 93.767 84.138 C 93.421 79.228 94.021 72.544 90.896 68.44 C 90.827 68.351 90.75 68.272 90.673 68.193 C 90.65 68.151 90.635 68.104 90.611 68.063 C 90.254 67.427 88.611 66.854 87.963 67.151 C 84.648 68.666 82.381 74.027 83.231 77.732 C 83.361 78.296 84.301 82.513 83.657 90.734 C 81.781 89.76 81.358 87.751 81.014 86.045 C 80.116 81.604 79.479 77.104 78.907 72.604 C 78.399 68.6 78.171 64.561 77.731 60.546 C 77.075 54.549 76.53 48.527 75.528 42.586 C 75.221 40.76 74.786 38.058 71.789 38.12 C 69.584 38.166 66.42 41.117 66.379 43.26 C 66.252 49.887 66.197 56.516 66.185 63.144 C 66.176 68.177 66.399 73.214 66.246 78.24 C 66.227 78.908 66.021 79.571 65.75 80.231 C 65.257 81.438 63.578 81.563 62.897 80.453 C 62.492 79.792 62.141 79.111 61.994 78.608 C 60.963 75.051 60.052 71.458 59.042 67.893 C 58.072 64.468 54.646 48.229 53.166 43.668 C 51.54 38.662 49.334 33.857 47.466 28.943 C 46.531 26.484 45.581 24.274 43.032 23.421 C 41.578 22.685 39.844 22.857 38.594 24.495 C 37.764 25.583 37.364 27.011 37.271 28.468 C 36.359 34.607 41.208 52.339 41.974 55.533 C 42.926 59.505 44.258 63.385 45.212 67.356 C 46.275 71.78 47.187 76.24 48.115 80.695 C 48.395 83.073 46.629 84.188 44.98 83.653 C 44.482 83.492 43.656 82.98 43.16 81.996 C 39.982 75.695 36.817 69.155 32.313 63.865 C 27.146 57.801 16.674 39.723 15.701 37.256 C 14.661 34.621 12.522 34.066 10.604 34.649 C 8.672 35.237 6.488 36.344 6.659 39.399 C 6.949 44.588 7.982 49.344 9.679 54.425 C 12.503 62.879 17.238 70.183 21.664 77.639 C 21.809 78.035 21.943 78.434 22.103 78.823 C 24.809 85.431 27.87 91.465 29.552 98.471 C 31.29 105.71 33.855 114.129 33.186 121.598 C 33.163 121.847 33.13 122.08 33.094 122.31 C 32.93 122.933 32.751 123.551 32.557 124.163 C 31.729 125.976 30.178 126.744 28.112 126.686 C 22.96 124.714 17.956 122.339 12.771 120.464 C 7.019 118.385 1.315 114.966 -4.89 115.878 C -5.327 115.942 -5.761 116.044 -6.189 116.176 C -9.882 116.704 -14.315 118.063 -14.786 121.537 C -14.8 121.548 -15.15 123.576 -13.38 125.478 C -13.12 125.859 -12.843 126.179 -12.562 126.367 C -8.959 128.778 -4.912 130.518 -1.071 132.579 C 1.3 133.852 3.634 135.196 5.991 136.495 C 6.657 136.91 7.324 137.322 7.993 137.727 C 12.16 140.248 16.671 142.199 20.79 144.773 C 22.913 146.101 24.86 147.543 26.841 148.949 C 26.887 148.99 26.934 149.03 26.979 149.071 C 29.325 151.584 32.267 152.768 35.239 153.95 C 36.243 154.437 37.295 154.964 38.292 155.547 C 38.599 155.849 38.895 156.176 39.212 156.453 L -84.918 156.453 C -89.36 156.453 -93.62 154.691 -96.766 151.555 C -97.171 151.15 -97.581 150.741 -97.986 150.337 C -101.117 147.211 -102.876 142.97 -102.876 138.547 L -102.564 -19.147 C -101.197 -22.192 -98.569 -15.491 -97.721 -10.453 C -97.606 -9.771 -97.467 -9.094 -97.329 -8.416 C -96.971 -4.331 -96.704 -.234 -96.407 3.894 C -95.754 12.964 -94.128 21.915 -94.008 31.027 C -93.999 31.7 -92.668 42.935 -91.743 48.004 C -91.36 50.104 -89.705 51.375 -88.09 51.056 C -87.012 51.284 -85.833 50.498 -85.021 49.555 C -80.771 44.623 -82.828 36.286 -82.594 30.036 C -82.314 29.974 -82.358 29.983 -82.079 29.922 C -81.421 31.253 -80.629 32.565 -80.435 33.961 C -79.405 41.336 -78.612 48.743 -77.751 56.141 C -77.258 60.376 -76.928 64.636 -76.27 68.845 C -75.883 71.322 -75.258 73.839 -74.246 76.118 C -73.688 77.378 -72.405 77.993 -71.293 78.166 C -68.934 78.855 -66.168 77.491 -65.143 74.583 C -64.77 73.525 -64.199 61.909 -64.601 57.67 C -64.549 57.492 -64.516 57.316 -64.535 57.146 C -64.892 53.892 -65.297 50.644 -65.696 47.394 C -65.712 47.168 -65.736 46.943 -65.748 46.717 C -65.785 45.986 -66.017 41.81 -65.215 39.176 C -64.985 38.422 -64.398 37.81 -63.653 37.555 C -63.475 37.493 -63.309 37.466 -63.165 37.533 C -62.678 37.896 -62.255 38.506 -61.891 39.188 C -61.146 41.069 -60.814 43.255 -60.383 44.985 C -59.63 48.01 -58.91 51.031 -57.913 53.988 C -56.279 58.838 -54.981 63.856 -53.138 68.637 C -51.475 74.289 -49.938 80.104 -47.828 85.588 C -47.279 87.013 -45.746 91.672 -41.854 93.092 C -40.523 93.577 -37.838 91.494 -37.438 89.987 C -35.329 82.028 -38.835 68.199 -40.036 63.602 C -41.303 58.755 -43.199 54.073 -44.495 49.232 C -45.495 45.495 -46.284 41.703 -47.065 37.903 C -47.356 36.488 -47.546 35.03 -47.951 33.638 C -48.697 31.079 -46.854 31.308 -46.321 31.438 C -45.528 31.633 -44.589 31.995 -44.115 32.602 C -40.729 36.934 -37.037 40.962 -34.336 45.898 C -27.869 57.718 -20.845 69.23 -14.125 80.913 C -11.674 85.176 -7.044 82.043 -6.146 76.761 C -5.498 72.96 -8.571 66.409 -11.645 58.241 C -12.521 55.909 -14.556 50.64 -16.577 46.597 C -28.609 22.784 -30.903 9.567 -32.143 3.34 C -32.322 2.438 -32.526 1.46 -32.718 .439 C -32.723 -.334 -32.816 -1.098 -33.037 -1.848 C -32.94 -2.227 -32.9 -2.648 -32.964 -3.133 C -33.923 -10.438 -24.925 -8.162 -20.689 -6.928 C -18.19 -6.199 -15.55 -5.487 -12.926 -4.686" transform="matrix(1,0,0,-1,102.8763,156.46451)"/><path d="M 0 0 L -3.729 -11.252 L -5.947 -11.252 L -8.729 -2.926 L -11.558 -11.252 L -13.792 -11.252 L -17.521 0 L -15.351 0 L -12.554 -8.552 L -9.645 0 L -7.716 0 L -4.871 -8.6 L -1.993 0 Z" transform="matrix(1,0,0,-1,21.4906,217.9352)"/><path d="M 0 0 L -2.121 4.919 L -4.228 0 Z M .691 -1.639 L -4.935 -1.639 L -6.044 -4.243 L -8.197 -4.243 L -3.134 7.009 L -1.077 7.009 L 4.003 -4.243 L 1.816 -4.243 Z" transform="matrix(1,0,0,-1,29.4466,224.944)"/><path d="M 0 0 C -.472 .386 -1.162 .578 -2.073 .578 L -4.517 .578 L -4.517 -3.906 L -2.073 -3.906 C -1.162 -3.906 -.472 -3.711 0 -3.319 C .472 -2.929 .708 -2.374 .708 -1.656 C .708 -.938 .472 -.386 0 0 M .756 -8.905 L -1.543 -5.61 C -1.64 -5.621 -1.784 -5.626 -1.977 -5.626 L -4.517 -5.626 L -4.517 -8.905 L -6.606 -8.905 L -6.606 2.347 L -1.977 2.347 C -1.002 2.347 -.152 2.186 .571 1.864 C 1.294 1.543 1.849 1.082 2.234 .482 C 2.62 -.118 2.813 -.831 2.813 -1.656 C 2.813 -2.503 2.606 -3.231 2.194 -3.842 C 1.782 -4.453 1.189 -4.908 .418 -5.208 L 3.006 -8.905 Z" transform="matrix(1,0,0,-1,41.4866,220.2819)"/><path d="M 0 0 L 1.978 0 L 1.978 -4.485 C 1.398 -4.946 .724 -5.3 -.048 -5.546 C -.819 -5.792 -1.613 -5.916 -2.427 -5.916 C -3.574 -5.916 -4.608 -5.666 -5.529 -5.168 C -6.451 -4.67 -7.175 -3.981 -7.699 -3.103 C -8.225 -2.224 -8.487 -1.232 -8.487 -.129 C -8.487 .975 -8.225 1.966 -7.699 2.845 C -7.175 3.724 -6.448 4.412 -5.521 4.91 C -4.595 5.408 -3.553 5.658 -2.395 5.658 C -1.452 5.658 -.595 5.502 .177 5.191 C .948 4.881 1.597 4.426 2.122 3.825 L .804 2.539 C -.054 3.396 -1.088 3.825 -2.299 3.825 C -3.092 3.825 -3.796 3.659 -4.412 3.327 C -5.028 2.995 -5.511 2.528 -5.859 1.929 C -6.207 1.328 -6.382 .643 -6.382 -.129 C -6.382 -.879 -6.207 -1.555 -5.859 -2.154 C -5.511 -2.755 -5.028 -3.226 -4.412 -3.568 C -3.796 -3.912 -3.097 -4.083 -2.314 -4.083 C -1.436 -4.083 -.664 -3.891 0 -3.505 Z" transform="matrix(1,0,0,-1,54.3138,223.4323)"/><path d="M 0 0 L -2.121 4.919 L -4.228 0 Z M .691 -1.639 L -4.935 -1.639 L -6.044 -4.243 L -8.197 -4.243 L -3.134 7.009 L -1.077 7.009 L 4.003 -4.243 L 1.816 -4.243 Z" transform="matrix(1,0,0,-1,65.6458,224.944)"/><path d="M 0 0 C 0 .771 -.578 1.141 -1.671 1.141 L -4.338 1.141 L -4.338 -1.141 L -1.671 -1.141 C -.578 -1.141 0 -.771 0 0 M -4.338 5.511 L -4.338 3.342 L -2.153 3.342 C -1.093 3.342 -.547 3.712 -.547 4.435 C -.547 5.142 -1.093 5.511 -2.153 5.511 Z M 3.214 -.354 C 3.214 -2.298 1.606 -3.438 -1.414 -3.438 L -7.487 -3.438 L -7.487 7.809 L -1.735 7.809 C 1.221 7.809 2.667 6.604 2.667 4.868 C 2.667 3.792 2.121 2.924 1.157 2.426 C 2.426 1.977 3.214 1.013 3.214 -.354" transform="matrix(1,0,0,-1,78.18,225.7487)"/><path d="M 0 0 L -1.446 3.599 L -2.893 0 Z M .932 -2.346 L -3.824 -2.346 L -4.708 -4.531 L -7.953 -4.531 L -2.988 6.716 L .145 6.716 L 5.125 -4.531 L 1.815 -4.531 Z" transform="matrix(1,0,0,-1,89.6575,224.6559)"/><path d="M 0 0 L 0 -11.247 L -2.618 -11.247 L -7.583 -5.254 L -7.583 -11.247 L -10.7 -11.247 L -10.7 0 L -8.081 0 L -3.116 -5.993 L -3.116 0 Z" transform="matrix(1,0,0,-1,106.388,217.94011)"/><path d="M 0 0 L -3.454 0 L -3.454 2.522 L 6.62 2.522 L 6.62 0 L 3.182 0 L 3.182 -8.725 L 0 -8.725 Z" transform="matrix(1,0,0,-1,111.0374,220.4626)"/><path d="M 0 0 L 0 6.234 L 3.182 6.234 L 3.182 .097 C 3.182 -1.831 3.984 -2.603 5.318 -2.603 C 6.636 -2.603 7.439 -1.831 7.439 .097 L 7.439 6.234 L 10.572 6.234 L 10.572 0 C 10.572 -3.357 8.612 -5.237 5.286 -5.237 C 1.96 -5.237 0 -3.357 0 0" transform="matrix(1,0,0,-1,118.5775,224.1745)"/><path d="M 0 0 L -3.729 -11.252 L -5.947 -11.252 L -8.729 -2.926 L -11.558 -11.252 L -13.792 -11.252 L -17.521 0 L -15.351 0 L -12.554 -8.552 L -9.645 0 L -7.716 0 L -4.871 -8.6 L -1.993 0 Z" transform="matrix(1,0,0,-1,148.138,217.9352)"/><path d="M 0 0 L -2.121 4.919 L -4.228 0 Z M .691 -1.639 L -4.935 -1.639 L -6.044 -4.243 L -8.197 -4.243 L -3.134 7.009 L -1.077 7.009 L 4.003 -4.243 L 1.816 -4.243 Z" transform="matrix(1,0,0,-1,156.095,224.944)"/><path d="M 0 0 C -.472 .386 -1.162 .578 -2.073 .578 L -4.517 .578 L -4.517 -3.906 L -2.073 -3.906 C -1.162 -3.906 -.472 -3.711 0 -3.319 C .472 -2.929 .708 -2.374 .708 -1.656 C .708 -.938 .472 -.386 0 0 M .756 -8.905 L -1.543 -5.61 C -1.64 -5.621 -1.784 -5.626 -1.977 -5.626 L -4.517 -5.626 L -4.517 -8.905 L -6.606 -8.905 L -6.606 2.347 L -1.977 2.347 C -1.002 2.347 -.152 2.186 .571 1.864 C 1.294 1.543 1.849 1.082 2.234 .482 C 2.62 -.118 2.813 -.831 2.813 -1.656 C 2.813 -2.503 2.606 -3.231 2.194 -3.842 C 1.782 -4.453 1.189 -4.908 .418 -5.208 L 3.006 -8.905 Z" transform="matrix(1,0,0,-1,168.1341,220.2819)"/><path d="M 0 0 L 1.978 0 L 1.978 -4.485 C 1.398 -4.946 .724 -5.3 -.048 -5.546 C -.819 -5.792 -1.613 -5.916 -2.427 -5.916 C -3.574 -5.916 -4.608 -5.666 -5.529 -5.168 C -6.451 -4.67 -7.175 -3.981 -7.699 -3.103 C -8.225 -2.224 -8.487 -1.232 -8.487 -.129 C -8.487 .975 -8.225 1.966 -7.699 2.845 C -7.175 3.724 -6.448 4.412 -5.521 4.91 C -4.595 5.408 -3.553 5.658 -2.395 5.658 C -1.452 5.658 -.595 5.502 .177 5.191 C .948 4.881 1.597 4.426 2.122 3.825 L .804 2.539 C -.054 3.396 -1.088 3.825 -2.299 3.825 C -3.092 3.825 -3.796 3.659 -4.412 3.327 C -5.028 2.995 -5.511 2.528 -5.859 1.929 C -6.207 1.328 -6.382 .643 -6.382 -.129 C -6.382 -.879 -6.207 -1.555 -5.859 -2.154 C -5.511 -2.755 -5.028 -3.226 -4.412 -3.568 C -3.796 -3.912 -3.097 -4.083 -2.314 -4.083 C -1.436 -4.083 -.664 -3.891 0 -3.505 Z" transform="matrix(1,0,0,-1,180.9613,223.4323)"/><path d="M 0 0 L -2.121 4.919 L -4.228 0 Z M .691 -1.639 L -4.935 -1.639 L -6.044 -4.243 L -8.197 -4.243 L -3.134 7.009 L -1.077 7.009 L 4.003 -4.243 L 1.816 -4.243 Z" transform="matrix(1,0,0,-1,192.2933,224.944)"/></g></g></g></svg>